<svg width="665" height="486" viewBox="0 0 665 486" fill="none" xmlns="http://www.w3.org/2000/svg">
<path d="M423.667 17.1812C483.334 -0.318813 611.067 -20.1188 650.667 44.6812C665.334 63.3479 680.467 123.081 623.667 212.681C566.867 302.281 466.667 377.681 423.667 404.181C409.001 413.681 365.367 438.681 308.167 462.681C250.967 486.681 238.167 485.181 238.167 485.181C235.834 485.181 234.668 483.581 248.667 477.181C249.72 476.681 263.167 471.681 297.667 452.181C334.264 431.496 382.334 397.015 401.167 381.181C443.667 348.181 537.267 264.081 571.667 191.681C614.667 101.181 594.667 60.1812 561.167 41.1812C527.667 22.1812 460.167 19.1812 399.167 34.1812C350.451 46.1607 345.334 49.0145 347.667 47.6812C366.467 35.2812 406.667 22.5145 423.667 17.1812Z" fill="white"/>
<path d="M65.1666 309.681C78.2732 266.357 107.667 224.681 135.167 196.681C158.367 171.881 143.333 184.348 131.667 193.681C106.167 212.181 42.6192 275.414 17.6667 327.181C-15.8331 396.681 -2.33333 456.681 63.6667 476.181C129.667 495.681 232.667 489.181 401.167 355.181C535.967 247.981 560 150.181 555.167 114.681C554.5 101.014 544.686 74.2314 518.667 60.1812C484.167 41.5512 435.667 50.1812 408.167 54.6812C381.162 59.1002 390.667 58.6812 397.167 58.1812C519.667 48.6812 511.167 120.681 491.167 160.681C481.333 182.848 445.367 240.281 376.167 292.681C306.967 345.081 243.333 371.848 220.167 378.681C207.833 383.181 173.467 393.581 136.667 395.181C90.6667 397.181 48.528 364.681 65.1666 309.681Z" fill="white"/>
<path d="M306.167 51.6816C307.418 51.6816 308.665 51.6973 309.909 51.7285C317.157 51.9107 324.277 52.6215 331.236 53.8232C332.351 54.0156 333.461 54.22 334.566 54.4375C340.772 55.658 346.842 57.2697 352.752 59.249C353.893 59.6314 355.029 60.028 356.158 60.4375C362.567 62.7613 368.778 65.5188 374.756 68.6768C375.514 69.0774 376.268 69.487 377.019 69.9004C383.235 73.3232 389.192 77.1807 394.849 81.4365C395.769 82.1287 396.681 82.831 397.585 83.5439C426.322 106.209 446.895 139.303 453.971 177.336C455.312 184.542 453.369 191.922 448.963 197.78C430.454 222.386 403.04 252.351 365.504 280.783C326.838 310.071 289.969 331.072 261.421 344.856C253.938 348.468 245.193 348.687 237.839 344.82C210.077 330.226 187.297 307.016 172.821 278.613C172.343 277.675 171.874 276.732 171.414 275.782C166.734 266.121 163.006 255.885 160.354 245.206C160.083 244.115 159.823 243.019 159.574 241.919C158.975 239.264 158.441 236.584 157.977 233.879C157.778 232.723 157.592 231.563 157.418 230.398C156.636 225.151 156.109 219.817 155.852 214.41C155.795 213.233 155.752 212.053 155.722 210.869C155.686 209.478 155.667 208.082 155.667 206.682C155.667 202 155.868 197.367 156.263 192.791C156.319 192.137 156.38 191.485 156.444 190.833C157.022 184.971 157.917 179.206 159.111 173.556C159.908 169.788 160.838 166.073 161.895 162.413C162.423 160.584 162.983 158.768 163.574 156.968C163.771 156.368 163.973 155.77 164.177 155.173C164.381 154.576 164.588 153.98 164.799 153.387C166.065 149.826 167.455 146.326 168.962 142.893C169.213 142.32 169.467 141.75 169.725 141.182C170.129 140.289 170.545 139.402 170.966 138.519C172.152 136.027 173.4 133.572 174.71 131.158C175.598 129.523 176.512 127.906 177.455 126.308C177.769 125.775 178.087 125.245 178.407 124.717C179.048 123.66 179.7 122.612 180.364 121.572C180.696 121.052 181.032 120.535 181.37 120.02C182.046 118.989 182.734 117.967 183.434 116.954C183.783 116.448 184.136 115.943 184.491 115.441C184.847 114.939 185.205 114.44 185.566 113.942C187.011 111.953 188.501 110.001 190.034 108.087C190.417 107.609 190.804 107.133 191.192 106.659C193.525 103.817 195.956 101.063 198.479 98.4023C199.933 96.8685 201.419 95.3674 202.934 93.8965C204.046 92.8159 205.173 91.7508 206.317 90.7051C206.962 90.1157 207.614 89.5341 208.269 88.9561C211.728 85.9015 215.322 83.004 219.044 80.2783C219.691 79.8045 220.343 79.3375 220.997 78.874C228.8 73.3482 237.132 68.5589 245.902 64.6074C246.461 64.3555 247.022 64.1074 247.585 63.8623C249.316 63.1084 251.063 62.3876 252.826 61.6992C253.929 61.2685 255.038 60.8499 256.153 60.4453C256.733 60.235 257.314 60.0284 257.897 59.8252C261.394 58.6066 264.948 57.5162 268.555 56.5605C269.757 56.242 270.965 55.9389 272.179 55.6504C273.999 55.2176 275.832 54.8191 277.677 54.4551C281.982 53.6055 286.352 52.9445 290.779 52.4814C292.044 52.3492 293.313 52.2326 294.587 52.1328C295.224 52.0829 295.862 52.0378 296.501 51.9961C297.346 51.9409 298.194 51.8952 299.043 51.8545C300.12 51.8028 301.2 51.7597 302.282 51.7314C303.573 51.6978 304.868 51.6816 306.167 51.6816Z" fill="white"/>
</svg>
